<svg width="24" height="24" viewBox="0 0 24 24" fill="none" xmlns="http://www.w3.org/2000/svg">
<path fill-rule="evenodd" clip-rule="evenodd" d="M0 1.43355C0 0.641824 0.641822 0 1.43355 0H22.5664C23.3581 0 23.9999 0.641822 23.9999 1.43355V22.5664C23.9999 23.3581 23.3581 23.9999 22.5664 23.9999H1.43355C0.641824 23.9999 0 23.3581 0 22.5664V1.43355ZM3.91503 9.12423H7.32762V20.0922H3.91503V9.12423ZM5.62217 3.67188C6.71264 3.67188 7.59812 4.55735 7.59812 5.64839C7.59812 6.73999 6.71264 7.62546 5.62217 7.62546C4.52718 7.62546 3.64453 6.73999 3.64453 5.64839C3.64453 4.55735 4.52775 3.67188 5.62217 3.67188ZM12.7323 9.12278H9.46484V20.0907H12.8695V14.666C12.8695 13.2351 13.14 11.8487 14.9138 11.8487C16.6633 11.8487 16.6853 13.4852 16.6853 14.757V20.0907H20.094V14.0759C20.094 11.1219 19.4558 8.85059 16.0043 8.85059C14.3457 8.85059 13.2338 9.75978 12.7792 10.6221H12.7323V9.12278Z" fill="#F2F6FC"/>
</svg>
