<?xml version="1.0" standalone="no"?>
<!DOCTYPE svg PUBLIC "-//W3C//DTD SVG 20010904//EN"
 "http://www.w3.org/TR/2001/REC-SVG-20010904/DTD/svg10.dtd">
<svg version="1.0" xmlns="http://www.w3.org/2000/svg"
 width="310.000000pt" height="342.000000pt" viewBox="0 0 310.000000 342.000000"
 preserveAspectRatio="xMidYMid meet">

<g transform="translate(0.000000,342.000000) scale(0.100000,-0.100000)"
fill="#000000" stroke="none">
<path d="M2607 2286 l-48 -125 32 -51 c17 -28 47 -87 65 -132 184 -434 92
-931 -235 -1271 -357 -372 -907 -469 -1366 -243 -374 185 -612 530 -656 948
-22 212 19 428 122 635 41 83 58 129 54 143 -14 43 -96 210 -103 210 -12 0
-124 -174 -165 -255 -48 -97 -93 -228 -119 -348 -31 -146 -31 -408 0 -554 122
-567 540 -985 1105 -1104 146 -31 409 -32 553 -1 292 63 515 182 720 387 202
202 325 427 389 715 25 114 31 363 12 485 -34 215 -107 403 -221 573 -39 58
-75 107 -81 109 -5 1 -32 -53 -58 -121z m-1333 -1966 c30 -30 8 -47 -26 -20
-28 22 -48 26 -48 10 0 -5 16 -16 35 -24 41 -17 51 -36 35 -65 -23 -44 -129
-14 -130 37 0 19 25 14 45 -8 19 -21 45 -27 45 -11 0 5 -16 18 -35 30 -36 21
-45 47 -22 70 17 17 76 7 101 -19z m126 11 c0 -5 -6 -11 -12 -14 -7 -2 -1 -8
15 -12 15 -4 27 -14 27 -22 0 -11 -9 -13 -45 -7 -55 8 -61 -9 -7 -22 47 -11
40 -30 -10 -26 -21 2 -38 -1 -38 -6 0 -12 25 -22 56 -22 15 0 24 -6 24 -15 0
-16 -22 -19 -83 -8 l-39 6 7 46 c12 82 16 93 36 88 10 -3 20 1 23 9 6 15 46
20 46 5z m569 -42 c23 -29 41 -56 41 -60 0 -12 -34 -11 -46 1 -14 14 -51 1
-57 -21 -3 -10 -13 -19 -22 -19 -16 0 -17 7 -11 67 4 36 9 70 12 75 13 21 46
4 83 -43z m-203 -8 c-4 -6 -23 -11 -42 -11 -19 0 -34 -4 -34 -10 0 -5 18 -10
40 -10 29 0 40 -4 40 -15 0 -10 -11 -15 -35 -15 -23 0 -35 -5 -35 -14 0 -11
10 -13 40 -9 31 4 40 2 40 -9 0 -16 -39 -28 -91 -28 -26 0 -28 3 -34 55 -10
75 -5 83 52 87 51 3 69 -3 59 -21z m-196 -7 c11 -11 12 -19 4 -32 -6 -9 -9
-34 -6 -55 4 -34 2 -38 -14 -35 -11 2 -20 13 -22 26 -2 12 -7 22 -12 22 -5 0
-15 3 -23 6 -11 4 -16 -2 -19 -18 -3 -21 -38 -35 -38 -15 0 4 0 35 0 68 l0 62
58 -7 c31 -4 64 -13 72 -22z m60 -48 c0 -46 -4 -65 -14 -69 -22 -9 -26 2 -26
70 0 56 2 63 20 63 18 0 20 -7 20 -64z"/>
<path d="M1910 275 c0 -8 7 -15 15 -15 9 0 12 6 9 15 -4 8 -10 15 -15 15 -5 0
-9 -7 -9 -15z"/>
<path d="M1480 250 c0 -5 11 -10 25 -10 14 0 25 5 25 10 0 6 -11 10 -25 10
-14 0 -25 -4 -25 -10z"/>
</g>
</svg>
