<svg width="24" height="24" viewBox="0 0 24 24" fill="none" xmlns="http://www.w3.org/2000/svg">
<path d="M4.38225 0C1.95468 0 0 1.95468 0 4.38225V19.6177C0 22.0453 1.95468 24 4.38225 24H12.6397V14.6175H10.1587V11.2395H12.6397V8.35349C12.6397 6.0861 14.1056 4.00425 17.4825 4.00425C18.8497 4.00425 19.8607 4.1355 19.8607 4.1355L19.7812 7.29001C19.7812 7.29001 18.7501 7.28026 17.625 7.28026C16.4072 7.28026 16.212 7.84133 16.212 8.77277V11.2395H19.878L19.7182 14.6175H16.212V24H19.6177C22.0453 24 23.9999 22.0453 23.9999 19.6177V4.38227C23.9999 1.9547 22.0453 2.39999e-05 19.6177 2.39999e-05H4.38222L4.38225 0Z" fill="#F2F6FC"/>
</svg>
