<svg width="24" height="24" viewBox="0 0 24 24" fill="none" xmlns="http://www.w3.org/2000/svg">
<path d="M11.9804 0C5.36395 0 0 5.3638 0 11.9803C0 18.5974 5.36395 23.9609 11.9804 23.9609C18.5971 23.9609 23.9608 18.5974 23.9608 11.9803C23.9608 5.36423 18.5974 0.000571808 11.9803 0.000571808L11.9804 0ZM17.4745 17.279C17.2594 17.6319 16.7996 17.7425 16.4478 17.5275C13.6345 15.808 10.0934 15.4196 5.92316 16.3722C5.52131 16.4644 5.12074 16.2124 5.02918 15.8107C4.93719 15.4089 5.18797 15.0083 5.59084 14.9167C10.1545 13.8734 14.0691 14.3225 17.2269 16.2521C17.5788 16.4681 17.6904 16.9273 17.4744 17.2792L17.4745 17.279ZM18.9409 14.0173C18.67 14.4569 18.0951 14.5948 17.6561 14.3249C14.4365 12.3458 9.52703 11.7725 5.71802 12.9288C5.22403 13.078 4.70228 12.7996 4.55236 12.3064C4.40357 11.8124 4.68212 11.2917 5.17525 11.1415C9.52618 9.82132 14.935 10.4608 18.6332 12.7333C19.0724 13.0037 19.2111 13.5788 18.9408 14.0174L18.9409 14.0173ZM19.0668 10.6205C15.205 8.32703 8.83504 8.11616 5.14848 9.23504C4.5565 9.41458 3.93046 9.08039 3.75106 8.4884C3.57166 7.89613 3.90557 7.27052 4.49798 7.09055C8.72989 5.80586 15.7649 6.05407 20.2104 8.69313C20.7429 9.00915 20.9176 9.69684 20.602 10.2286C20.2872 10.7611 19.5977 10.9366 19.0669 10.6205H19.0668Z" fill="#F2F6FC"/>
</svg>
