<svg width="26" height="22" viewBox="0 0 26 22" fill="none" xmlns="http://www.w3.org/2000/svg">
<path d="M26 2.60596C25.276 3.72777 24.3877 4.68406 23.3352 5.47483C23.3456 5.68691 23.3508 5.92661 23.3508 6.19394C23.3508 7.67928 23.1429 9.16641 22.7271 10.6553C22.3113 12.1443 21.6762 13.5695 20.8218 14.9309C19.9673 16.2923 18.9495 17.4984 17.7683 18.5492C16.5872 19.6 15.1674 20.4378 13.5089 21.0627C11.8504 21.6876 10.073 22 8.1766 22C5.21697 22 2.49143 21.1677 0 19.5032C0.4422 19.5544 0.866306 19.58 1.27232 19.58C3.74486 19.58 5.95323 18.7868 7.89744 17.2002C6.7446 17.1781 5.71215 16.8085 4.80008 16.0912C3.88802 15.3739 3.26035 14.4573 2.91709 13.3414C3.25638 13.4087 3.59125 13.4424 3.92169 13.4424C4.39735 13.4424 4.86539 13.3778 5.3258 13.2485C4.09551 12.9919 3.07488 12.3536 2.26391 11.3337C1.45297 10.3138 1.0475 9.13659 1.0475 7.80216V7.73339C1.80265 8.16893 2.60815 8.4006 3.46398 8.42841C2.73516 7.9223 2.15732 7.2623 1.73046 6.44844C1.30356 5.63457 1.09012 4.75382 1.09012 3.80619C1.09012 2.80676 1.33054 1.87611 1.81139 1.01422C3.14931 2.72446 4.77048 4.09133 6.6749 5.11484C8.57934 6.13837 10.6224 6.7068 12.8042 6.82015C12.7112 6.41618 12.6645 5.99463 12.6644 5.55548C12.6644 4.02214 13.1853 2.71289 14.2271 1.62773C15.269 0.542578 16.5259 0 17.998 0C19.5391 0 20.8372 0.584547 21.8923 1.75364C23.0979 1.50491 24.2266 1.05502 25.2786 0.403964C24.8733 1.73262 24.0923 2.75758 22.9357 3.47886C23.9988 3.34727 25.0202 3.0563 26 2.60596H26Z" fill="#F2F6FC"/>
</svg>
