<svg width="24" height="24" viewBox="0 0 24 24" fill="none" xmlns="http://www.w3.org/2000/svg">
<path d="M12.0001 16C14.2092 16 16.0001 14.2091 16.0001 12C16.0001 9.79086 14.2092 8 12.0001 8C9.79098 8 8.00012 9.79086 8.00012 12C8.00012 14.2091 9.79098 16 12.0001 16Z" fill="#F2F6FC"/>
<path d="M16.999 0H6.99898C3.13999 0 0 3.14099 0 7.00098V17.001C0 20.8599 3.14099 23.9999 7.00098 23.9999H17.001C20.8599 23.9999 23.9999 20.859 23.9999 16.999V6.99898C23.9999 3.13999 20.859 0 16.999 0ZM12 18C8.69098 18 5.99999 15.309 5.99999 12C5.99999 8.69098 8.69098 5.99999 12 5.99999C15.309 5.99999 18 8.69098 18 12C18 15.309 15.309 18 12 18ZM19 5.99999C18.448 5.99999 18 5.55199 18 4.99999C18 4.44799 18.448 3.99999 19 3.99999C19.552 3.99999 20 4.44799 20 4.99999C20 5.55199 19.552 5.99999 19 5.99999Z" fill="#F2F6FC"/>
</svg>
