<svg id="svg" version="1.1" xmlns="http://www.w3.org/2000/svg" xmlns:xlink="http://www.w3.org/1999/xlink" width="400" height="400" viewBox="0, 0, 400,400"><g id="svgg"><path id="path0" d="" stroke="none" fill="#32a852" fill-rule="evenodd"></path><path id="path1" d="" stroke="true" fill="#32a852" fill-rule="evenodd"></path><path id="path2" d="M196.600 57.172 C 189.971 57.516,189.739 57.595,189.395 59.631 C 189.142 61.128,189.061 61.200,187.641 61.200 C 184.289 61.200,184.614 55.752,184.493 113.989 C 184.396 160.687,184.326 165.583,183.764 165.021 C 183.422 164.680,182.796 164.400,182.371 164.400 C 181.643 164.400,181.599 164.047,181.576 158.100 C 181.525 145.043,180.981 135.263,180.262 134.468 C 179.898 134.066,179.600 133.542,179.600 133.304 C 179.600 133.066,179.090 132.442,178.466 131.917 L 177.332 130.963 177.074 122.674 C 176.788 113.486,176.037 110.451,173.844 109.617 C 172.903 109.259,172.884 109.150,172.713 103.126 C 172.579 98.398,172.387 96.726,171.872 95.800 C 171.505 95.140,171.204 94.367,171.202 94.081 C 171.201 93.796,170.683 93.266,170.052 92.904 C 168.957 92.275,168.891 92.075,168.645 88.622 C 168.026 79.937,167.650 78.800,165.400 78.800 C 164.478 78.800,164.398 78.652,164.371 76.900 C 164.270 70.337,163.988 70.014,158.350 70.006 C 152.144 69.997,151.677 70.141,151.155 72.214 C 150.747 73.834,150.635 73.936,149.062 74.123 C 144.478 74.666,142.800 75.644,142.800 77.773 C 142.800 78.100,142.111 78.413,141.033 78.574 C 138.520 78.951,138.239 79.480,138.069 84.152 C 137.861 89.837,138.192 90.900,140.320 91.377 L 142.000 91.754 142.000 94.739 C 142.000 97.552,141.960 97.688,141.300 97.103 C 140.915 96.762,140.242 96.417,139.804 96.337 C 139.188 96.224,138.945 95.749,138.729 94.234 C 138.287 91.150,137.815 90.979,130.176 91.134 C 126.399 91.211,125.596 91.650,125.242 93.827 C 125.008 95.267,124.869 95.408,123.453 95.638 C 120.995 96.037,120.648 97.489,120.867 106.473 C 121.012 112.433,120.797 111.829,123.900 115.013 C 124.950 116.090,125.200 116.670,125.200 118.032 C 125.200 119.773,127.327 123.656,128.535 124.120 C 128.901 124.260,129.260 125.662,129.598 128.266 C 130.217 133.046,130.400 133.436,132.189 133.772 L 133.600 134.036 133.639 137.318 C 133.700 142.408,134.678 145.705,136.265 146.173 L 137.530 146.546 137.775 151.173 C 138.193 159.055,138.148 158.951,141.500 159.842 C 141.881 159.943,142.000 162.056,142.001 168.687 C 142.004 183.076,142.733 188.316,144.800 188.801 L 145.800 189.036 145.905 202.137 L 146.011 215.238 144.811 215.656 C 142.735 216.380,142.036 221.530,142.013 236.250 L 142.000 245.100 140.796 245.341 C 138.918 245.716,138.187 248.466,137.776 256.700 L 137.511 262.000 136.404 262.000 C 134.589 262.000,133.708 265.011,133.483 271.985 C 133.400 274.566,133.398 274.571,132.080 274.839 C 131.354 274.986,130.643 275.224,130.501 275.366 C 130.144 275.722,129.259 282.152,129.226 284.617 L 129.200 286.634 127.451 287.102 C 125.568 287.605,125.220 288.179,125.201 290.800 C 125.178 294.098,124.783 295.141,123.451 295.425 C 121.619 295.816,121.245 296.269,120.957 298.442 C 120.765 299.889,120.525 300.400,120.037 300.400 C 118.663 300.400,117.743 301.537,117.225 303.873 C 116.299 308.054,116.231 308.189,114.969 308.335 C 113.325 308.526,112.876 309.021,112.585 310.963 C 112.344 312.566,112.237 312.682,110.665 313.030 C 109.081 313.382,108.982 313.491,108.639 315.267 C 108.313 316.953,108.152 317.157,106.979 317.377 C 105.439 317.666,104.991 318.138,104.519 319.969 C 104.224 321.112,103.905 321.411,102.588 321.780 C 101.038 322.215,100.860 322.459,100.158 325.100 C 100.085 325.375,99.581 325.600,99.039 325.600 C 96.993 325.600,96.127 326.243,95.851 327.969 C 95.598 329.551,95.544 329.600,94.044 329.600 C 92.178 329.600,91.523 330.281,91.222 332.535 C 91.019 334.057,90.891 334.211,89.730 334.323 C 89.031 334.391,88.240 334.711,87.971 335.035 C 87.372 335.756,87.313 341.073,87.897 341.657 C 89.044 342.804,96.127 343.271,110.000 343.114 C 125.528 342.939,125.407 342.960,125.811 340.268 C 126.056 338.634,126.160 338.519,127.715 338.170 C 129.575 337.752,129.727 337.417,130.195 332.700 L 130.464 330.000 131.809 330.000 C 133.525 330.000,134.400 328.822,134.400 326.511 C 134.400 325.121,134.537 324.800,135.130 324.800 C 136.062 324.800,137.467 323.295,137.744 322.000 C 137.861 321.450,137.886 322.573,137.799 324.495 C 137.631 328.182,137.092 329.348,135.410 329.660 C 133.479 330.019,132.711 340.871,134.523 342.194 C 135.943 343.231,162.346 343.537,166.497 342.565 C 167.905 342.235,168.263 340.918,168.630 334.708 L 168.908 330.016 170.283 329.758 C 172.254 329.388,172.489 328.455,172.706 320.140 L 172.896 312.881 174.098 312.640 C 174.759 312.508,175.457 312.400,175.650 312.400 C 175.842 312.400,176.000 315.521,176.000 319.336 L 176.000 326.272 174.994 326.730 C 174.441 326.982,173.786 327.686,173.538 328.294 C 173.290 328.902,172.825 330.006,172.503 330.746 C 171.778 332.417,171.916 341.276,172.680 342.040 C 173.921 343.281,187.795 343.348,189.025 342.118 C 189.341 341.802,189.600 340.839,189.600 339.979 C 189.600 338.596,189.727 338.389,190.700 338.184 C 192.587 337.787,192.987 337.375,193.414 335.395 C 193.756 333.804,194.051 333.367,195.126 332.858 C 195.857 332.512,196.526 331.836,196.658 331.311 C 196.930 330.226,197.924 329.600,199.374 329.600 C 199.938 329.600,200.787 329.213,201.261 328.739 C 202.072 327.928,202.151 327.918,202.635 328.580 C 202.976 329.046,204.263 329.476,206.456 329.857 C 210.458 330.551,210.030 330.101,210.427 334.041 C 210.881 338.546,211.447 338.800,221.024 338.800 C 230.382 338.800,231.765 338.188,231.765 334.044 C 231.765 330.929,231.270 330.000,229.613 330.000 L 228.524 330.000 228.264 324.300 C 228.120 321.165,228.002 317.134,228.001 315.343 L 228.000 312.085 229.600 312.491 L 231.200 312.897 231.209 315.549 C 231.240 324.520,232.144 329.595,233.714 329.606 C 235.310 329.617,235.472 330.071,235.728 335.245 C 236.022 341.175,236.322 342.201,237.870 342.551 C 242.548 343.610,269.297 343.123,270.030 341.965 C 271.256 340.028,270.266 329.600,268.856 329.600 C 267.232 329.600,266.399 327.952,266.416 324.774 C 266.431 321.901,266.450 321.843,266.980 323.062 C 267.282 323.756,267.950 324.455,268.465 324.616 C 269.697 325.001,269.987 325.503,269.994 327.271 C 270.002 329.112,270.859 330.000,272.629 330.000 C 273.946 330.000,274.000 330.059,274.002 331.500 C 274.010 336.380,274.672 338.005,276.767 338.286 C 278.289 338.490,278.400 338.592,278.400 339.776 C 278.400 342.864,279.760 343.120,296.200 343.131 C 306.661 343.137,311.747 342.813,312.466 342.094 C 313.572 340.988,313.109 331.085,311.917 330.349 C 311.670 330.196,310.717 329.958,309.800 329.821 C 308.413 329.613,308.036 329.354,307.566 328.285 C 307.014 327.033,304.269 325.280,302.770 325.224 C 301.953 325.193,300.400 323.537,300.400 322.697 C 300.400 321.814,298.866 320.800,297.529 320.800 C 296.577 320.800,296.404 320.607,296.189 319.300 C 296.054 318.475,295.799 317.440,295.625 317.000 C 295.450 316.560,295.148 315.676,294.953 315.035 C 294.701 314.201,294.203 313.736,293.205 313.401 C 291.992 312.993,291.773 312.715,291.525 311.260 C 291.140 309.006,290.997 308.841,289.177 308.550 C 287.728 308.318,287.600 308.195,287.600 307.038 C 287.600 305.167,286.614 304.000,285.033 304.000 C 283.632 304.000,283.215 302.745,283.203 298.500 C 283.199 296.857,281.984 295.600,280.400 295.600 C 279.250 295.600,279.200 295.527,279.200 293.855 C 279.200 289.270,278.322 287.218,276.354 287.206 C 275.217 287.199,274.800 285.733,274.800 281.744 C 274.800 279.958,273.804 278.400,272.662 278.400 C 271.347 278.400,270.892 277.029,270.602 272.200 C 270.305 267.248,269.983 266.000,269.002 266.000 C 267.067 266.000,266.502 264.222,266.287 257.454 C 266.035 249.519,265.966 249.268,263.953 248.946 L 262.400 248.698 262.385 244.449 C 262.357 236.954,261.689 225.313,261.237 224.469 C 260.963 223.958,260.311 223.604,259.499 223.525 L 258.200 223.400 258.096 204.133 L 257.992 184.865 259.200 184.600 C 261.286 184.142,261.824 181.201,262.308 167.600 L 262.600 159.400 263.671 159.276 C 265.656 159.047,266.400 155.949,266.400 147.905 L 266.400 142.902 267.987 142.648 C 270.017 142.324,270.242 141.845,270.589 137.100 C 270.834 133.760,270.975 133.200,271.575 133.200 C 272.979 133.200,274.800 129.552,274.800 126.742 C 274.800 123.273,275.259 121.600,276.210 121.600 C 278.182 121.600,278.860 120.449,279.094 116.711 L 279.310 113.252 280.860 112.990 C 283.158 112.602,283.358 111.936,283.324 104.800 C 283.287 97.041,283.093 96.321,280.900 95.828 C 279.384 95.487,279.224 95.327,278.986 93.920 C 278.598 91.622,278.105 91.347,273.932 91.104 C 267.191 90.711,265.938 91.132,265.617 93.901 C 265.415 95.642,265.308 95.788,264.048 96.045 C 263.305 96.196,262.543 96.563,262.354 96.860 C 261.935 97.522,261.888 95.732,262.254 93.056 C 262.487 91.361,262.604 91.200,263.605 91.200 C 265.436 91.200,265.752 90.364,265.929 85.033 C 266.114 79.480,265.940 79.063,263.247 78.608 C 261.862 78.374,261.649 78.187,261.429 77.012 C 261.121 75.370,260.640 74.966,258.600 74.635 C 257.720 74.493,256.193 74.246,255.206 74.088 C 253.511 73.816,253.398 73.717,253.168 72.296 C 252.825 70.179,252.923 70.214,246.841 70.071 C 240.183 69.915,240.303 69.833,240.007 74.753 L 239.800 78.200 238.140 78.725 C 236.113 79.367,236.079 79.474,235.741 86.267 L 235.479 91.534 234.121 91.788 C 232.191 92.150,231.200 97.129,231.200 106.458 C 231.200 108.638,231.136 108.800,230.276 108.800 C 227.892 108.800,227.594 110.058,227.247 121.575 L 227.000 129.751 225.684 130.091 C 223.388 130.685,222.824 135.349,222.809 153.900 L 222.800 164.000 221.833 164.000 C 221.301 164.000,220.581 164.109,220.233 164.243 C 219.658 164.463,219.600 159.739,219.600 112.493 C 219.600 58.611,219.591 58.238,218.329 57.562 C 217.347 57.037,203.868 56.794,196.600 57.172 M261.333 102.300 C 261.131 104.592,260.922 105.163,259.948 106.077 C 259.316 106.670,258.800 107.435,258.800 107.777 C 258.800 108.120,258.620 108.400,258.400 108.400 C 258.160 108.400,258.000 106.813,258.000 104.440 L 258.000 100.479 259.500 100.081 C 260.325 99.862,261.128 99.664,261.285 99.641 C 261.442 99.619,261.463 100.815,261.333 102.300 M146.094 104.563 C 146.998 105.908,146.422 108.820,145.300 108.574 C 143.213 108.117,143.200 108.100,143.200 105.823 L 143.200 103.620 144.500 103.873 C 145.215 104.012,145.932 104.322,146.094 104.563 M257.043 113.433 C 256.909 113.781,256.800 114.751,256.800 115.589 C 256.800 117.032,256.726 117.121,255.400 117.276 C 253.769 117.466,253.388 115.705,254.646 113.786 C 255.393 112.646,257.462 112.341,257.043 113.433 M150.400 117.498 C 150.400 118.107,150.423 118.106,148.860 117.561 C 147.023 116.921,147.155 115.980,149.000 116.558 C 149.770 116.799,150.400 117.222,150.400 117.498 M226.958 292.140 C 227.637 294.668,227.211 308.625,226.499 307.200 C 226.115 306.430,225.395 305.622,224.900 305.405 C 224.016 305.017,224.000 304.887,224.000 297.985 L 224.000 290.961 225.364 291.120 C 226.346 291.234,226.792 291.520,226.958 292.140 M180.104 295.500 C 179.860 300.501,180.057 299.929,178.471 300.246 L 177.200 300.500 177.200 296.083 C 177.200 291.393,177.243 291.292,179.257 291.232 L 180.314 291.200 180.104 295.500 M206.094 293.754 C 206.202 294.719,206.205 296.406,206.100 297.503 L 205.908 299.498 203.654 299.798 C 202.414 299.964,200.684 300.122,199.808 300.150 L 198.216 300.200 197.915 298.200 C 197.734 296.999,197.796 295.361,198.070 294.100 L 198.527 292.000 202.212 292.000 L 205.896 292.000 206.094 293.754 M150.400 295.000 C 150.400 295.420,150.010 295.586,149.100 295.554 C 148.258 295.524,148.082 295.439,148.600 295.315 C 149.040 295.209,149.571 294.960,149.780 294.761 C 150.301 294.266,150.400 294.304,150.400 295.000 M146.250 305.250 C 146.113 305.938,146.000 306.908,146.000 307.406 C 146.000 308.146,145.740 308.343,144.582 308.478 L 143.164 308.644 143.282 306.624 C 143.404 304.535,143.556 304.398,146.150 304.047 C 146.343 304.021,146.388 304.563,146.250 305.250 M261.123 306.758 C 261.241 308.828,261.213 308.896,260.323 308.658 C 259.815 308.522,259.085 308.408,258.700 308.405 C 258.121 308.401,258.000 308.029,258.000 306.263 L 258.000 304.126 259.500 304.368 C 260.997 304.610,261.000 304.614,261.123 306.758 M142.000 315.555 C 142.000 317.010,141.911 317.128,140.629 317.368 C 139.875 317.510,139.169 317.845,139.061 318.113 C 138.952 318.381,138.849 318.123,138.832 317.539 C 138.807 316.700,139.059 316.388,140.035 316.048 C 140.715 315.811,141.366 315.253,141.482 314.809 C 141.807 313.565,142.000 313.843,142.000 315.555 M264.234 316.343 C 265.248 316.613,265.412 316.858,265.491 318.226 C 265.567 319.549,265.520 319.655,265.201 318.892 C 264.969 318.341,264.345 317.889,263.610 317.742 C 262.571 317.534,262.401 317.323,262.406 316.250 C 262.410 315.444,262.529 315.184,262.740 315.517 C 262.921 315.801,263.593 316.173,264.234 316.343 " stroke="none" fill="#006cb5" fill-rule="evenodd"></path><path id="path3" d="" stroke="none" fill="#fff" fill-rule="evenodd"></path></g></svg>